<?xml version="1.0" encoding="UTF-8"?>
<svg id="Layer_1" xmlns="http://www.w3.org/2000/svg" xmlns:xlink="http://www.w3.org/1999/xlink" version="1.1" viewBox="0 0 195 194.9">
  <!-- Generator: Adobe Illustrator 29.6.1, SVG Export Plug-In . SVG Version: 2.1.1 Build 9)  -->
  <defs>
    <style>
      .st0, .st1 {
        fill: none;
      }

      .st2 {
        fill: #231f20;
      }

      .st1 {
        stroke: #da2128;
        stroke-miterlimit: 3.9;
        stroke-width: .4px;
      }

      .st3 {
        clip-path: url(#clippath-1);
      }

      .st4 {
        clip-path: url(#clippath-3);
      }

      .st5 {
        clip-path: url(#clippath-4);
      }

      .st6 {
        clip-path: url(#clippath-2);
      }

      .st7 {
        fill: #fff;
      }

      .st8 {
        fill: #da2128;
      }

      .st9 {
        clip-path: url(#clippath);
      }
    </style>
    <clipPath id="clippath">
      <rect class="st0" width="195" height="194.9"/>
    </clipPath>
    <clipPath id="clippath-1">
      <path class="st0" d="M10.2,97.5c0,48.2,39.1,87.3,87.3,87.3s87.3-39.1,87.3-87.3S145.7,10.2,97.5,10.2,10.2,49.3,10.2,97.5"/>
    </clipPath>
    <clipPath id="clippath-2">
      <rect class="st0" width="195" height="194.9"/>
    </clipPath>
    <clipPath id="clippath-3">
      <rect class="st0" width="195" height="194.9"/>
    </clipPath>
    <clipPath id="clippath-4">
      <rect class="st0" width="195" height="194.9"/>
    </clipPath>
  </defs>
  <g class="st9">
    <path class="st7" d="M0,97.5C0,43.6,43.6,0,97.5,0s97.5,43.6,97.5,97.5-43.6,97.5-97.5,97.5S0,151.3,0,97.5"/>
    <path class="st8" d="M10.2,97.5C10.2,49.3,49.3,10.2,97.5,10.2s87.3,39.1,87.3,87.3-39.1,87.3-87.3,87.3S10.2,145.7,10.2,97.5"/>
  </g>
  <g class="st3">
    <path class="st7" d="M168.5,127.4v-1h.7c.4,0,.7.1.7.4,0,.4-.2.5-.6.5h-.8ZM168.5,128.2h.4l1,1.8h1l-1.1-1.9c.8,0,1.2-.3,1.2-1.1s-.7-1.3-1.8-1.3h-1.6v4.4h1v-1.8ZM171.9,127.8c0,1.8-1.3,3-2.8,3s-2.8-1.2-2.8-3,1.3-3,2.8-3,2.8,1.2,2.8,3M169.1,131.9c2.2,0,4.2-1.5,4.2-4s-2-4-4.2-4-4.2,1.5-4.2,4,2,4,4.2,4"/>
    <path class="st1" d="M168.5,127.4v-1h.7c.4,0,.7.1.7.4,0,.4-.2.5-.6.5h-.8ZM168.5,128.2h.4l1,1.8h1l-1.1-1.9c.8,0,1.2-.3,1.2-1.1s-.7-1.3-1.8-1.3h-1.6v4.4h1v-1.8ZM171.9,127.8c0,1.8-1.3,3-2.8,3s-2.8-1.2-2.8-3,1.3-3,2.8-3,2.8,1.2,2.8,3ZM169.1,131.9c2.2,0,4.2-1.5,4.2-4s-2-4-4.2-4-4.2,1.5-4.2,4,2,4,4.2,4Z"/>
    <path class="st7" d="M131.8,104.7h8.9l5.2-11.8h-8.9l2.1-4.8c1.2-2.6,2.4-3.9,4.5-3.9h6.1l5.4-12.3h-7.4c-5.7,0-12.3,6.7-16.2,15.6l-15.6,35.5h7.9l8-18.3Z"/>
    <path class="st1" d="M131.8,104.7h8.9l5.2-11.8h-8.9l2.1-4.8c1.2-2.6,2.4-3.9,4.5-3.9h6.1l5.4-12.3h-7.4c-5.7,0-12.3,6.7-16.2,15.6l-15.6,35.5h7.9l8-18.3Z"/>
    <polygon class="st7" points="166.3 71.8 158.5 71.8 136 123 143.9 123 166.3 71.8"/>
    <polygon class="st1" points="166.3 71.8 158.5 71.8 136 123 143.9 123 166.3 71.8"/>
    <polygon class="st7" points="169.7 71.8 164.3 84.1 170.1 84.1 153 123 160.9 123 177.9 84.1 183.7 84.1 189.1 71.8 169.7 71.8"/>
    <polygon class="st1" points="169.7 71.8 164.3 84.1 170.1 84.1 153 123 160.9 123 177.9 84.1 183.7 84.1 189.1 71.8 169.7 71.8"/>
  </g>
  <g class="st6">
    <path class="st7" d="M14,123l15-34.2c1.7-3.8,4-6.3,6-6.3s2.1,2.5.4,6.3l-2.1,4.9h-6.5l-5,11.4h6.4s-7.8,17.9-7.8,17.9h7.9l14.7-33.6c4.8-11,3.6-18.4-3-18.4s-14.3,7.5-19.1,18.4l-14.7,33.6h7.9Z"/>
    <path class="st7" d="M54.1,71.8l-14.3,32.7c-5.1,11.7-4.3,19.4,3,19.4s14.9-7.7,20-19.4l14.3-32.7h-7.9l-14.8,33.7c-1.6,3.7-3.7,6.1-6.3,6.1s-2.6-2.3-1-6.1l14.8-33.7h-7.9Z"/>
  </g>
  <polygon class="st7" points="80.4 71.8 75 84.1 80.8 84.1 63.8 123 71.6 123 88.7 84.1 94.4 84.1 99.8 71.8 80.4 71.8"/>
  <g class="st4">
    <path class="st7" d="M121.9,97.4c6.3-14.3,4.5-26.5-4.5-26.5s-21.4,12.1-27.7,26.5c-6.3,14.3-4.5,26.5,4.5,26.5s21.4-12.1,27.7-26.5M114,97.4c-3.2,7.3-9.4,13.5-14,13.5s-5.4-6.1-2.2-13.5c3.2-7.3,9.4-13.5,14-13.5s5.4,6.1,2.2,13.5"/>
  </g>
  <rect class="st7" x="20.7" y="93.7" width="9.1" height="11.4"/>
  <g class="st5">
    <path class="st2" d="M168.5,127.4v-1h.7c.4,0,.7.1.7.4,0,.4-.2.5-.6.5h-.8ZM168.5,128.2h.4l1,1.8h1l-1.1-1.9c.8,0,1.2-.3,1.2-1.1s-.7-1.3-1.8-1.3h-1.6v4.4h1v-1.8ZM171.9,127.8c0,1.8-1.3,3-2.8,3s-2.8-1.2-2.8-3,1.3-3,2.8-3,2.8,1.2,2.8,3M169.1,131.9c2.2,0,4.2-1.5,4.2-4s-2-4-4.2-4-4.2,1.5-4.2,4,2,4,4.2,4"/>
    <path class="st2" d="M131.8,104.7h8.9l5.2-11.8h-8.9l2.1-4.8c1.2-2.6,2.4-3.9,4.5-3.9h6.1l5.4-12.3h-7.4c-5.7,0-12.3,6.7-16.2,15.6l-15.6,35.5h7.9l8-18.3Z"/>
  </g>
  <polygon class="st2" points="166.3 71.8 158.5 71.8 136 123 143.9 123 166.3 71.8"/>
  <polygon class="st2" points="169.7 71.8 164.3 84.1 170.1 84.1 153 123 160.9 123 177.9 84.1 183.7 84.1 189.1 71.8 169.7 71.8"/>
</svg>